<svg width="1200" height="630" viewBox="0 0 1200 630" fill="none" xmlns="http://www.w3.org/2000/svg">
  <defs>
    <linearGradient id="bg" x1="0" y1="0" x2="1200" y2="630" gradientUnits="userSpaceOnUse">
      <stop offset="0%" stop-color="#0a1128"/>
      <stop offset="40%" stop-color="#0f1b3d"/>
      <stop offset="100%" stop-color="#1a2d5a"/>
    </linearGradient>
    <linearGradient id="gold-grad" x1="0" y1="0" x2="1" y2="1">
      <stop offset="0%" stop-color="#FFE082"/>
      <stop offset="50%" stop-color="#F9A825"/>
      <stop offset="100%" stop-color="#C17900"/>
    </linearGradient>
  </defs>
  <!-- Background -->
  <rect width="1200" height="630" fill="url(#bg)"/>
  <!-- Grid pattern -->
  <g opacity="0.03">
    <line x1="0" y1="60" x2="1200" y2="60" stroke="#F9A825" stroke-width="1"/>
    <line x1="0" y1="120" x2="1200" y2="120" stroke="#F9A825" stroke-width="1"/>
    <line x1="0" y1="180" x2="1200" y2="180" stroke="#F9A825" stroke-width="1"/>
    <line x1="0" y1="240" x2="1200" y2="240" stroke="#F9A825" stroke-width="1"/>
    <line x1="0" y1="300" x2="1200" y2="300" stroke="#F9A825" stroke-width="1"/>
    <line x1="0" y1="360" x2="1200" y2="360" stroke="#F9A825" stroke-width="1"/>
    <line x1="0" y1="420" x2="1200" y2="420" stroke="#F9A825" stroke-width="1"/>
    <line x1="0" y1="480" x2="1200" y2="480" stroke="#F9A825" stroke-width="1"/>
    <line x1="0" y1="540" x2="1200" y2="540" stroke="#F9A825" stroke-width="1"/>
    <line x1="60" y1="0" x2="60" y2="630" stroke="#F9A825" stroke-width="1"/>
    <line x1="120" y1="0" x2="120" y2="630" stroke="#F9A825" stroke-width="1"/>
    <line x1="180" y1="0" x2="180" y2="630" stroke="#F9A825" stroke-width="1"/>
    <line x1="240" y1="0" x2="240" y2="630" stroke="#F9A825" stroke-width="1"/>
  </g>
  <!-- Glow -->
  <ellipse cx="600" cy="250" rx="300" ry="200" fill="#F9A825" opacity="0.04" filter="url(#blur)"/>
  <!-- Diamond -->
  <g transform="translate(548, 100) scale(2.2)">
    <path d="M24 0 L44 22 L24 28 Z" fill="#FFD95A"/>
    <path d="M24 0 L4 22 L24 28 Z" fill="#F9A825"/>
    <path d="M44 22 L24 60 L24 28 Z" fill="#B87000"/>
    <path d="M4 22 L24 60 L24 28 Z" fill="#D4860A"/>
  </g>
  <!-- ВЕДА text -->
  <text x="600" y="330" text-anchor="middle" font-family="serif" font-weight="700" font-size="72" letter-spacing="16" fill="url(#gold-grad)">ВЕДА</text>
  <!-- Subtitle -->
  <text x="600" y="370" text-anchor="middle" font-family="sans-serif" font-weight="500" font-size="16" letter-spacing="6" fill="rgba(255,255,255,0.35)" text-transform="uppercase">АГЕНЦІЯ ЕКОНОМІЧНОГО РОЗВИТКУ</text>
  <!-- Main tagline -->
  <text x="600" y="440" text-anchor="middle" font-family="sans-serif" font-weight="700" font-size="36" fill="white">Грантовий консалтинг</text>
  <text x="600" y="485" text-anchor="middle" font-family="sans-serif" font-weight="700" font-size="36" fill="white">для українського бізнесу</text>
  <!-- Bottom line -->
  <rect x="500" y="520" width="200" height="2" rx="1" fill="#F9A825" opacity="0.4"/>
  <!-- URL -->
  <text x="600" y="560" text-anchor="middle" font-family="sans-serif" font-weight="500" font-size="18" fill="rgba(255,255,255,0.4)">veda.agency</text>
</svg>
