<svg width="1200" height="630" viewBox="0 0 1200 630" fill="none" xmlns="http://www.w3.org/2000/svg">
  <defs>
    <linearGradient id="bg" x1="0" y1="0" x2="1200" y2="630" gradientUnits="userSpaceOnUse">
      <stop offset="0%" stop-color="#091030"/>
      <stop offset="40%" stop-color="#0D1846"/>
      <stop offset="100%" stop-color="#152262"/>
    </linearGradient>
  </defs>
  <!-- Background -->
  <rect width="1200" height="630" fill="url(#bg)"/>
  <!-- Grid pattern -->
  <g opacity="0.03">
    <line x1="0" y1="60" x2="1200" y2="60" stroke="#E95623" stroke-width="1"/>
    <line x1="0" y1="120" x2="1200" y2="120" stroke="#E95623" stroke-width="1"/>
    <line x1="0" y1="180" x2="1200" y2="180" stroke="#E95623" stroke-width="1"/>
    <line x1="0" y1="240" x2="1200" y2="240" stroke="#E95623" stroke-width="1"/>
    <line x1="0" y1="300" x2="1200" y2="300" stroke="#E95623" stroke-width="1"/>
    <line x1="0" y1="360" x2="1200" y2="360" stroke="#E95623" stroke-width="1"/>
    <line x1="0" y1="420" x2="1200" y2="420" stroke="#E95623" stroke-width="1"/>
    <line x1="0" y1="480" x2="1200" y2="480" stroke="#E95623" stroke-width="1"/>
    <line x1="0" y1="540" x2="1200" y2="540" stroke="#E95623" stroke-width="1"/>
    <line x1="60" y1="0" x2="60" y2="630" stroke="#E95623" stroke-width="1"/>
    <line x1="120" y1="0" x2="120" y2="630" stroke="#E95623" stroke-width="1"/>
    <line x1="180" y1="0" x2="180" y2="630" stroke="#E95623" stroke-width="1"/>
    <line x1="240" y1="0" x2="240" y2="630" stroke="#E95623" stroke-width="1"/>
  </g>
  <!-- W glyph (viewBox 0 0 512 512, scaled and centered) -->
  <g transform="translate(548, 100) scale(0.215)">
    <path d="M100 100 L170 100 L260 412 L190 412 Z" fill="#FFFFFF" />
    <path d="M220 100 L290 100 L380 412 L310 412 Z" fill="#FFFFFF" />
    <path d="M340 100 L412 100 L376 220 Z" fill="#E95623" />
  </g>
  <!-- WEDA text -->
  <text x="600" y="330" text-anchor="middle" font-family="sans-serif" font-weight="700" font-size="72" letter-spacing="16" fill="#FFFFFF">WEDA</text>
  <!-- Subtitle -->
  <text x="600" y="370" text-anchor="middle" font-family="sans-serif" font-weight="500" font-size="16" letter-spacing="6" fill="rgba(255,255,255,0.35)">WEST ECONOMIC DEVELOPMENT AGENCY</text>
  <!-- Main tagline -->
  <text x="600" y="440" text-anchor="middle" font-family="sans-serif" font-weight="700" font-size="36" fill="white">Грантовий консалтинг</text>
  <text x="600" y="485" text-anchor="middle" font-family="sans-serif" font-weight="700" font-size="36" fill="white">для українського бізнесу</text>
  <!-- Bottom line -->
  <rect x="500" y="520" width="200" height="2" rx="1" fill="#E95623" opacity="0.4"/>
  <!-- URL -->
  <text x="600" y="560" text-anchor="middle" font-family="sans-serif" font-weight="500" font-size="18" fill="rgba(255,255,255,0.4)">weda.com</text>
</svg>
